<svg id="Calque_1" data-name="Calque 1" xmlns="http://www.w3.org/2000/svg" viewBox="30 23 45 55"><defs><style>.cls-1{fill:#0082b9;}.cls-2{fill:#b32663;}</style></defs><path class="cls-1" d="M62.05,26.43H58.49V25.7A1.75,1.75,0,0,0,56.74,24H48.32a1.84,1.84,0,0,0-1.75,1.81v.73H43a6.32,6.32,0,0,0-6.31,6.31V70A6.32,6.32,0,0,0,43,76.28h19.1A6.32,6.32,0,0,0,68.36,70V32.74A6.32,6.32,0,0,0,62.05,26.43ZM65.9,71a2.75,2.75,0,0,1-2.75,2.75H41.91A2.75,2.75,0,0,1,39.16,71V31.7A2.75,2.75,0,0,1,41.91,29H63.15A2.75,2.75,0,0,1,65.9,31.7Z"/><path class="cls-2" d="M61.86,66.21a2.08,2.08,0,0,1,2,2.15V69.6a2.07,2.07,0,0,1-2,2.14H43.14a2.07,2.07,0,0,1-2-2.14V68.36a2.07,2.07,0,0,1,2-2.15Z"/></svg>